<svg width="512" height="512" viewBox="0 0 512 512" fill="none" xmlns="http://www.w3.org/2000/svg">
<path d="M233 327C235.761 327 238 324.761 238 322V207.976V85.3892C238 82.6278 235.761 80.3892 233 80.3892H83.5421C82.2404 80.3892 80.9899 79.8815 80.0566 78.9741L49.4855 49.2503C46.316 46.1686 41 48.4144 41 52.8352V322C41 324.761 43.2386 327 46 327H233Z" fill="#37705F"/>
<path d="M279 185C276.239 185 274 187.239 274 190V304.024V426.611C274 429.372 276.239 431.611 279 431.611H428.458C429.76 431.611 431.01 432.118 431.943 433.026L462.515 462.75C465.684 465.831 471 463.586 471 459.165V190C471 187.239 468.761 185 466 185H279Z" fill="#37BEA3"/>
</svg>
